<svg xmlns="http://www.w3.org/2000/svg" width="190" height="380"><path fill-rule="evenodd" d="M31.83 2.964c35.524 0 84.863.005 120.14.005 9.968.203 24.83-.105 31.954 13.359 2.353 4.448 3.11 10.796 3.11 14.195 0 5.208.089 47.12.089 51.704.518.126.964-.251.964.914 0 9.074.046 31.463.046 36.554 0 2.042-.501 1.841-1.007 1.989.001 49.687-.027 123.182-.027 172.868 0 14.583-.022 31.573-.022 46.156 0 8.921.725 15.316-2.123 22.477-2.424 6.092-6.613 11.094-12.629 13.559-5.978 2.45-12.599 2.434-22.017 2.437-14.152-.105-28.279.001-43.025.001-1.366.025-3.381-.124-5.292-.113-4.276.023-9.198-.038-13.433-.044-1.801-.002-4.639.1-5.939.1-6.764 0-39.169-.08-45.933-.08-18.08.543-23.705-4.077-27.211-7.849-4.98-5.357-6.896-11.304-6.901-23.701-.23-47.385-.112-123.057-.112-170.452-.001-15.601.033-31.935.033-46.669 0-.206-1.029-.546-1.029-.944-.051-7.323-.04-15.979-.04-23.38 0-.218.225-.259.994-.637.013-.477-.029-5.856-.013-6.456.023-.852-.935-.422-.935-1.049 0-2.068-.057-22.099-.057-22.817.003-1.351 1.023-.907 1.023-1.741 0-3.848-.019-8.643-.019-10.797-.212-.073-.997-.161-.997-.769 0-2.265-.036-8.449-.036-11.465 0-1.295.911-.677 1.114-1.098 0-4.583-.062-9.167-.062-13.751 0-8.682 1.115-15.237 4.395-20.571 3.159-5.137 8.493-9.074 15.122-10.727 3.945-.758 7.521-1.06 9.875-1.208zm-4.451 10.514c-2.473 0-8.132 1.169-11.637 6.032-3.338 4.634-3.352 9.818-3.352 13.641 0 37.499.279 104.644.279 142.143 0 44.687-.174 89.573-.174 134.259 0 7.67-.332 21.831-.332 33.511 0 12.177 1.557 16.985 3.49 19.635 5.255 7.206 13.56 6.614 15.564 6.614 25.911 0 98.106-.068 124.017-.068 11.369 0 13.891-1.234 17.692-5.049 4.361-4.375 4.106-10.562 4.105-24.641v-55.316V41.474c.001-15.462-.376-19.221-3.927-23.034-3.962-4.254-6.863-5.132-15.832-5.132-4.645 0-14.843.009-18.532.009-1.565 0-2.209 1.018-2.209 2.454 0 3.787-2.597 9.459-9.39 9.459-22.605 0-58.456-.03-64.362-.03-6.43 0-9.544-4.096-9.544-8.266 0-3.175-1.193-3.639-2.929-3.639-8.117 0-14.113.183-22.927.183z"/></svg>